<svg xmlns="http://www.w3.org/2000/svg" width="120" height="120" viewBox="14 12 52 50" role="img" aria-label="frost-log">
  <defs>
    <linearGradient id="f" gradientUnits="userSpaceOnUse" x1="40" y1="16" x2="40" y2="58">
      <stop offset="0" stop-color="#b8e6f5"/>
      <stop offset="0.4" stop-color="#6cc6ea"/>
      <stop offset="0.78" stop-color="#3f9fd6"/>
      <stop offset="1" stop-color="#2769a0"/>
    </linearGradient>
  </defs>
  <path d="M40 58 C28 58 20 52 21 43 C21 36 24 31 28 33 C30 26 34 19 40 16 C46 19 50 26 52 33 C56 31 59 37 58 44 C58 53 52 58 40 58 Z" fill="url(#f)"/>
  <path d="M40 53 C31 53 26 49 26 43 C26 38 28 34 31 36 C33 30 36 25 40 23 C44 25 47 30 49 36 C52 34 54 38 54 43 C54 49 49 53 40 53 Z" fill="#bdeeff"/>
  <ellipse cx="34.8" cy="42" rx="3.6" ry="4.3" fill="#142730"/>
  <ellipse cx="45.2" cy="42" rx="3.6" ry="4.3" fill="#142730"/>
  <circle cx="33.6" cy="40.4" r="1.2" fill="#fff"/>
  <circle cx="44.1" cy="40.4" r="1.2" fill="#fff"/>
</svg>
